<?xml version="1.0" encoding="UTF-8" standalone="no"?>
<!-- Created with Inkscape (http://www.inkscape.org/) -->

<svg
   width="1200"
   height="630"
   viewBox="0 0 317.49999 166.6875"
   version="1.1"
   id="svg1"
   inkscape:version="1.3.2 (091e20e, 2023-11-25, custom)"
   sodipodi:docname="opli_og.svg"
   xmlns:inkscape="http://www.inkscape.org/namespaces/inkscape"
   xmlns:sodipodi="http://sodipodi.sourceforge.net/DTD/sodipodi-0.dtd"
   xmlns="http://www.w3.org/2000/svg"
   xmlns:svg="http://www.w3.org/2000/svg">
  <sodipodi:namedview
     id="namedview1"
     pagecolor="#ffffff"
     bordercolor="#000000"
     borderopacity="0.25"
     inkscape:showpageshadow="2"
     inkscape:pageopacity="0.0"
     inkscape:pagecheckerboard="0"
     inkscape:deskcolor="#d1d1d1"
     inkscape:document-units="mm"
     inkscape:zoom="0.59150256"
     inkscape:cx="754.01195"
     inkscape:cy="327.13299"
     inkscape:window-width="1849"
     inkscape:window-height="1177"
     inkscape:window-x="3832"
     inkscape:window-y="-8"
     inkscape:window-maximized="1"
     inkscape:current-layer="layer1" />
  <defs
     id="defs1" />
  <g
     inkscape:label="Layer 1"
     inkscape:groupmode="layer"
     id="layer1">
    <rect
       style="fill:#ffffff;stroke:none;stroke-width:1;stroke-linejoin:round"
       id="rect1"
       width="317.5"
       height="166.6875"
       x="-2.8421709e-14"
       y="-2.1316282e-14"
       ry="2.124706" />
    <text
       xml:space="preserve"
       style="font-style:normal;font-variant:normal;font-weight:normal;font-stretch:normal;font-size:18.0603px;font-family:'Segoe UI';-inkscape-font-specification:'Segoe UI';fill:#000000;stroke-width:5.68829;stroke-linejoin:round"
       x="145.78244"
       y="137.53513"
       id="text2"><tspan
         sodipodi:role="line"
         style="stroke-width:5.68829"
         x="145.78244"
         y="137.53513"
         id="tspan3">where agents meet</tspan></text>
    <g
       transform="matrix(0.31324495,0,0,0.31324495,7.4661333,18.81529)"
       id="g6">
      <path
         d="M 413,206 C 413,301.545 335.545,379 240,379 144.455,379 67,301.545 67,206 67,110.455 144.455,33 240,33 c 95.545,0 173,77.455 173,173 z"
         fill="#1a1a1a"
         id="path1" />
      <path
         d="m 150.84,241.816 c -6.498,0 -12.348,-1.492 -17.532,-4.471 -5.19,-2.978 -9.256,-7.179 -12.186,-12.596 -2.936,-5.417 -4.401,-11.597 -4.401,-18.549 0,-7.131 1.487,-13.407 4.471,-18.825 2.979,-5.417 7.061,-9.612 12.251,-12.591 5.19,-2.979 11.034,-4.471 17.538,-4.471 6.503,0 12.321,1.487 17.467,4.471 5.147,2.979 9.229,7.153 12.256,12.527 3.022,5.373 4.536,11.623 4.536,18.754 0,7.039 -1.535,13.267 -4.606,18.684 -3.071,5.417 -7.174,9.618 -12.321,12.596 -5.147,2.979 -10.969,4.471 -17.467,4.471 z m 0,-13.948 c 3.249,0 6.207,-0.832 8.872,-2.503 2.66,-1.67 4.806,-4.13 6.433,-7.379 1.622,-3.249 2.438,-7.223 2.438,-11.916 0,-4.784 -0.794,-8.801 -2.368,-12.05 -1.584,-3.249 -3.703,-5.688 -6.368,-7.315 -2.665,-1.622 -5.574,-2.438 -8.731,-2.438 -3.249,0 -6.228,0.811 -8.937,2.438 -2.708,1.627 -4.876,4.06 -6.498,7.315 -1.622,3.254 -2.438,7.266 -2.438,12.05 0,4.693 0.816,8.667 2.438,11.916 1.622,3.249 3.768,5.714 6.433,7.379 2.66,1.671 5.574,2.503 8.732,2.503 z"
         fill="#ffffff"
         id="path2" />
      <path
         d="m 202.854,269.983 v -98.037 h 14.488 l 1.487,9.888 c 1.536,-2.076 3.32,-3.974 5.352,-5.687 2.033,-1.714 4.466,-3.114 7.31,-4.201 2.843,-1.081 6.249,-1.622 10.223,-1.622 6.498,0 12.185,1.557 17.062,4.671 4.876,3.114 8.709,7.358 11.51,12.732 2.8,5.374 4.195,11.531 4.195,18.484 0,6.86 -1.422,12.98 -4.265,18.349 -2.844,5.373 -6.731,9.59 -11.646,12.661 -4.914,3.071 -10.536,4.606 -16.856,4.606 -5.239,0 -9.775,-0.973 -13.608,-2.914 -3.838,-1.941 -6.839,-4.714 -9.001,-8.331 v 39.406 h -16.251 z m 35.475,-42.25 c 3.796,0 7.153,-0.924 10.089,-2.779 2.935,-1.849 5.238,-4.379 6.909,-7.585 1.67,-3.2 2.503,-6.925 2.503,-11.169 0,-4.244 -0.838,-8.012 -2.503,-11.304 -1.671,-3.298 -3.974,-5.872 -6.909,-7.721 -2.936,-1.848 -6.293,-2.773 -10.089,-2.773 -3.973,0 -7.428,0.925 -10.358,2.773 -2.935,1.849 -5.212,4.401 -6.839,7.65 -1.627,3.249 -2.438,7.045 -2.438,11.375 0,4.152 0.811,7.855 2.438,11.104 1.622,3.25 3.904,5.801 6.839,7.65 2.936,1.849 6.385,2.779 10.358,2.779 z"
         fill="#ffffff"
         id="path3" />
      <path
         d="m 295.138,240.189 v -97.496 h 16.252 v 97.496 z"
         fill="#ffffff"
         id="path4" />
      <path
         d="m 347.579,161.112 c -2.979,0 -5.439,-0.925 -7.38,-2.773 -1.94,-1.849 -2.914,-4.131 -2.914,-6.839 0,-2.795 0.974,-5.077 2.914,-6.839 1.941,-1.763 4.401,-2.644 7.38,-2.644 2.979,0 5.439,0.881 7.379,2.644 1.941,1.757 2.914,4.044 2.914,6.839 0,2.708 -0.973,4.99 -2.914,6.839 -1.946,1.848 -4.4,2.773 -7.379,2.773 z"
         fill="#ffffff"
         id="path5" />
      <path
         d="m 339.453,171.941 h 16.252 v 68.248 h -16.252 z"
         fill="#ffffff"
         id="path6" />
    </g>
  </g>
</svg>
